<?xml version="1.0"?>
<svg xmlns="http://www.w3.org/2000/svg" xmlns:xlink="http://www.w3.org/1999/xlink" xmlns:svgjs="http://svgjs.com/svgjs" version="1.1" width="512" height="512" x="0" y="0" viewBox="0 0 512 512" style="enable-background:new 0 0 512 512" xml:space="preserve" class=""><g><linearGradient xmlns="http://www.w3.org/2000/svg" id="SVGID_1_" gradientUnits="userSpaceOnUse" x1="256" x2="256" y1="512" y2="0"><stop stop-opacity="1" stop-color="#a0d9c3" offset="0"/><stop stop-opacity="1" stop-color="#bea9aa" offset="0"/><stop stop-opacity="1" stop-color="#be66db" offset="0.9973"/></linearGradient><linearGradient xmlns="http://www.w3.org/2000/svg" id="SVGID_2_" gradientUnits="userSpaceOnUse" x1="256" x2="256" y1="407" y2="105"><stop stop-opacity="1" stop-color="#9cfff3" offset="0"/><stop stop-opacity="1" stop-color="#7700ff" offset="1"/></linearGradient><g xmlns="http://www.w3.org/2000/svg"><g><g><circle cx="256" cy="256" fill="url(#SVGID_1_)" r="256" data-original="url(#SVGID_1_)" style=""/></g></g><g><g><path d="m334.489 312.032-71.506-89.382c-3.404-4.242-10.562-4.242-13.966 0l-71.506 89.382c-4.669 5.845-.498 14.524 6.983 14.524h26.815v71.505c0 4.941 3.998 8.938 8.938 8.938h71.505c4.94 0 8.938-3.998 8.938-8.938v-71.505h26.814c7.483 0 11.653-8.679 6.985-14.524zm-155.581-101.899c3.876 3.099 9.489 2.453 12.57-1.396l64.522-80.663 64.522 80.662c3.112 3.862 8.727 4.466 12.569 1.396 3.85-3.09 4.478-8.711 1.397-12.569l-71.506-89.382c-3.404-4.242-10.562-4.242-13.966 0l-71.506 89.382c-3.08 3.858-2.451 9.48 1.398 12.57zm0 57.234c3.876 3.107 9.489 2.444 12.57-1.397l64.522-80.661 64.522 80.662c3.112 3.863 8.727 4.466 12.569 1.397 3.85-3.09 4.478-8.711 1.397-12.569l-71.506-89.382c-3.404-4.242-10.562-4.242-13.966 0l-71.506 89.382c-3.08 3.857-2.451 9.478 1.398 12.568z" fill="url(#SVGID_2_)" data-original="url(#SVGID_2_)" style=""/></g></g></g></g></svg>
